# xmcd
# Track frame offsets:
# 150
# 18921
# 36481
# 54670
# 71183
# 87775
# 102706
# 122077
# 139450
# 155897
# 170814
# 184286
# 200244
# 219701
# 235362
# 253479
# 270023
# 270560
# 271098
# 271626
# 273109
# 274592
# 275693
# 276559
# 277626
# 278856
# 280457
# 281858
# 283140
# 284333
# 285337
# 286986
# 288544
# 289882
# 291368
#
# Disc length: 3904 seconds
# Revision: 0
# Processed by: cddbd v1.5.1PL0 Copyright (c) Steve Scherf et al.
# Submitted via: VisiTrax 2.9.10.228 - For more info visit www.synapsa.com
#
DISCID=680f3e23
DTITLE=TM Century - GoldDisc GD1228
DYEAR=2005
DGENRE=Country
TTITLE0=Brad Paisley - Alcohol
TTITLE1=Faith Hill - Mississippi Girl
TTITLE2=Van Zant - Help Somebody
TTITLE3=Sugerland - Something More
TTITLE4=Jamie O'neal - Somebody's Hero
TTITLE5=Brooks and Dunn - Play Something Country
TTITLE6=Trisha Yearwood - Georgia Rain
TTITLE7=Toby Keith - As Good As I Once Was
TTITLE8=LeAnn Rimes - Probably Wouldn't Be This Way
TTITLE9=Buddy Jewel - If She Were Any Other Woman
TTITLE10=Alan Jackson - The Talkin' Song Repair Blues
TTITLE11=Kenny Chesney - Keg In The Closet
TTITLE12=George Strait - You'll Be There
TTITLE13=Trick Pony - It's A Heartache
TTITLE14=Reba McIntire - My Sister
TTITLE15=Pat Green - Baby Doll
TTITLE16=* - *
TTITLE17=* - *
TTITLE18=* - *
TTITLE19=* - *
TTITLE20=* - *
TTITLE21=* - *
TTITLE22=* - *
TTITLE23=* - *
TTITLE24=* - *
TTITLE25=* - *
TTITLE26=* - *
TTITLE27=* - *
TTITLE28=* - *
TTITLE29=* - *
TTITLE30=* - *
TTITLE31=* - *
TTITLE32=* - *
TTITLE33=* - *
TTITLE34=* - *
EXTD=*17 thru 35 sound clips ONLY!
EXTT0=
EXTT1=
EXTT2=
EXTT3=
EXTT4=
EXTT5=
EXTT6=
EXTT7=
EXTT8=
EXTT9=
EXTT10=
EXTT11=
EXTT12=
EXTT13=
EXTT14=
EXTT15=
EXTT16=
EXTT17=
EXTT18=
EXTT19=
EXTT20=
EXTT21=
EXTT22=
EXTT23=
EXTT24=
EXTT25=
EXTT26=
EXTT27=
EXTT28=
EXTT29=
EXTT30=
EXTT31=
EXTT32=
EXTT33=
EXTT34=
PLAYORDER=
